<svg width="29" height="29" viewBox="0 0 29 29" fill="none" xmlns="http://www.w3.org/2000/svg">
<g clip-path="url(#clip0_853_1317)">
<g filter="url(#filter0_i_853_1317)">
<path d="M2 7.80894C2 7.63745 2.08788 7.47792 2.23284 7.3863L13.7954 0.0773625C13.9586 -0.0257875 14.1665 -0.0257875 14.3297 0.0773625L25.8922 7.3863C26.0372 7.47792 26.125 7.63745 26.125 7.80894V20.5668C26.125 20.7403 26.035 20.9014 25.8874 20.9924L14.3249 28.1217C14.164 28.2209 13.9609 28.2209 13.8 28.1217L2.23758 20.9924C2.08992 20.9014 2 20.7403 2 20.5668V7.80894Z" fill="url(#paint0_linear_853_1317)"/>
<path d="M2 7.80894C2 7.63745 2.08788 7.47792 2.23284 7.3863L13.7954 0.0773625C13.9586 -0.0257875 14.1665 -0.0257875 14.3297 0.0773625L25.8922 7.3863C26.0372 7.47792 26.125 7.63745 26.125 7.80894V20.5668C26.125 20.7403 26.035 20.9014 25.8874 20.9924L14.3249 28.1217C14.164 28.2209 13.9609 28.2209 13.8 28.1217L2.23758 20.9924C2.08992 20.9014 2 20.7403 2 20.5668V7.80894Z" fill="url(#paint1_linear_853_1317)"/>
</g>
<g filter="url(#filter1_i_853_1317)">
<path d="M13.9688 28.1872C13.9099 28.176 13.8527 28.1541 13.8 28.1216L2.23758 20.9924C2.08992 20.9014 2 20.7403 2 20.5668V7.81384L13.7326 15.1055C13.8794 15.1967 13.9688 15.3573 13.9688 15.5302V28.1872Z" fill="url(#paint2_linear_853_1317)"/>
</g>
<path d="M26.0966 7.64307C26.1151 7.69564 26.125 7.75163 26.125 7.80896V20.5669C26.125 20.7403 26.035 20.9014 25.8874 20.9925L14.3249 28.1217C14.2167 28.1884 14.0895 28.2102 13.9688 28.1872V15.446C13.9688 15.2731 14.0581 15.1126 14.2049 15.0213L26.0039 7.68843C26.034 7.66975 26.065 7.65469 26.0966 7.64307Z" fill="url(#paint3_linear_853_1317)"/>
<path d="M26.0966 7.64307C26.1151 7.69564 26.125 7.75163 26.125 7.80896V20.5669C26.125 20.7403 26.035 20.9014 25.8874 20.9925L14.3249 28.1217C14.2167 28.1884 14.0895 28.2102 13.9688 28.1872V15.446C13.9688 15.2731 14.0581 15.1126 14.2049 15.0213L26.0039 7.68843C26.034 7.66975 26.065 7.65469 26.0966 7.64307Z" fill="url(#paint4_linear_853_1317)"/>
<g filter="url(#filter2_i_853_1317)">
<path d="M9 20.9325C9 20.6972 9.2586 20.5535 9.4584 20.6778L12.5843 22.6211C12.7311 22.7123 12.8204 22.8729 12.8204 23.0457V25.3062C12.8204 25.5415 12.5618 25.6852 12.362 25.5609L9.2361 23.6176C9.0893 23.5264 9 23.3658 9 23.193V20.9325Z" fill="url(#paint5_linear_853_1317)"/>
</g>
<g filter="url(#filter3_i_853_1317)">
<path d="M6.46875 10.9605V13.7053L9.39065 15.4553V12.9017C9.39065 12.5604 9.56305 12.2437 9.85065 12.0597C13.8404 9.50762 21.0288 4.85018 21.2031 4.68187C21.3632 4.56469 21.5755 4.62198 21.6406 4.71312C21.6406 4.52562 21.5416 4.41625 21.4921 4.385L18.7523 2.71262C18.5885 2.61262 18.3818 2.61523 18.2206 2.71935L7.01785 9.95232C6.67553 10.1733 6.46875 10.553 6.46875 10.9605Z" fill="#966957"/>
<path d="M6.46875 10.9605V13.7053L9.39065 15.4553V12.9017C9.39065 12.5604 9.56305 12.2437 9.85065 12.0597C13.8404 9.50762 21.0288 4.85018 21.2031 4.68187C21.3632 4.56469 21.5755 4.62198 21.6406 4.71312C21.6406 4.52562 21.5416 4.41625 21.4921 4.385L18.7523 2.71262C18.5885 2.61262 18.3818 2.61523 18.2206 2.71935L7.01785 9.95232C6.67553 10.1733 6.46875 10.553 6.46875 10.9605Z" fill="url(#paint6_linear_853_1317)"/>
<path d="M6.46875 10.9605V13.7053L9.39065 15.4553V12.9017C9.39065 12.5604 9.56305 12.2437 9.85065 12.0597C13.8404 9.50762 21.0288 4.85018 21.2031 4.68187C21.3632 4.56469 21.5755 4.62198 21.6406 4.71312C21.6406 4.52562 21.5416 4.41625 21.4921 4.385L18.7523 2.71262C18.5885 2.61262 18.3818 2.61523 18.2206 2.71935L7.01785 9.95232C6.67553 10.1733 6.46875 10.553 6.46875 10.9605Z" fill="url(#paint7_linear_853_1317)"/>
</g>
<g filter="url(#filter4_f_853_1317)">
<path d="M21.4376 4.49444C21.3594 4.43819 21.2383 4.47101 21.1876 4.49444L9.64066 12.0257C9.61196 12.0439 9.53826 12.1061 9.47266 12.2093" stroke="#A47E73" stroke-width="0.05"/>
</g>
<g filter="url(#filter5_f_853_1317)">
<path d="M14.2188 14.9709L25.8438 7.72095" stroke="#F4CAA3" stroke-width="0.2" stroke-linecap="round"/>
</g>
</g>
<defs>
<filter id="filter0_i_853_1317" x="2" y="0" width="24.125" height="28.2961" filterUnits="userSpaceOnUse" color-interpolation-filters="sRGB">
<feFlood flood-opacity="0" result="BackgroundImageFix"/>
<feBlend mode="normal" in="SourceGraphic" in2="BackgroundImageFix" result="shape"/>
<feColorMatrix in="SourceAlpha" type="matrix" values="0 0 0 0 0 0 0 0 0 0 0 0 0 0 0 0 0 0 127 0" result="hardAlpha"/>
<feOffset dy="0.1"/>
<feGaussianBlur stdDeviation="0.15"/>
<feComposite in2="hardAlpha" operator="arithmetic" k2="-1" k3="1"/>
<feColorMatrix type="matrix" values="0 0 0 0 0.843137 0 0 0 0 0.694118 0 0 0 0 0.52549 0 0 0 1 0"/>
<feBlend mode="normal" in2="shape" result="effect1_innerShadow_853_1317"/>
</filter>
<filter id="filter1_i_853_1317" x="2" y="7.81384" width="12.9688" height="21.3734" filterUnits="userSpaceOnUse" color-interpolation-filters="sRGB">
<feFlood flood-opacity="0" result="BackgroundImageFix"/>
<feBlend mode="normal" in="SourceGraphic" in2="BackgroundImageFix" result="shape"/>
<feColorMatrix in="SourceAlpha" type="matrix" values="0 0 0 0 0 0 0 0 0 0 0 0 0 0 0 0 0 0 127 0" result="hardAlpha"/>
<feOffset dx="1" dy="1"/>
<feGaussianBlur stdDeviation="1.5"/>
<feComposite in2="hardAlpha" operator="arithmetic" k2="-1" k3="1"/>
<feColorMatrix type="matrix" values="0 0 0 0 0.831373 0 0 0 0 0.670588 0 0 0 0 0.545098 0 0 0 1 0"/>
<feBlend mode="normal" in2="shape" result="effect1_innerShadow_853_1317"/>
</filter>
<filter id="filter2_i_853_1317" x="8.9" y="20.6321" width="3.92043" height="4.97458" filterUnits="userSpaceOnUse" color-interpolation-filters="sRGB">
<feFlood flood-opacity="0" result="BackgroundImageFix"/>
<feBlend mode="normal" in="SourceGraphic" in2="BackgroundImageFix" result="shape"/>
<feColorMatrix in="SourceAlpha" type="matrix" values="0 0 0 0 0 0 0 0 0 0 0 0 0 0 0 0 0 0 127 0" result="hardAlpha"/>
<feOffset dx="-0.15"/>
<feGaussianBlur stdDeviation="0.05"/>
<feComposite in2="hardAlpha" operator="arithmetic" k2="-1" k3="1"/>
<feColorMatrix type="matrix" values="0 0 0 0 0.760103 0 0 0 0 0.683293 0 0 0 0 0.795016 0 0 0 1 0"/>
<feBlend mode="normal" in2="shape" result="effect1_innerShadow_853_1317"/>
</filter>
<filter id="filter3_i_853_1317" x="6.36875" y="2.6394" width="15.2719" height="12.8159" filterUnits="userSpaceOnUse" color-interpolation-filters="sRGB">
<feFlood flood-opacity="0" result="BackgroundImageFix"/>
<feBlend mode="normal" in="SourceGraphic" in2="BackgroundImageFix" result="shape"/>
<feColorMatrix in="SourceAlpha" type="matrix" values="0 0 0 0 0 0 0 0 0 0 0 0 0 0 0 0 0 0 127 0" result="hardAlpha"/>
<feOffset dx="-0.1"/>
<feGaussianBlur stdDeviation="0.05"/>
<feComposite in2="hardAlpha" operator="arithmetic" k2="-1" k3="1"/>
<feColorMatrix type="matrix" values="0 0 0 0 0.47451 0 0 0 0 0.266667 0 0 0 0 0.301961 0 0 0 1 0"/>
<feBlend mode="normal" in2="shape" result="effect1_innerShadow_853_1317"/>
</filter>
<filter id="filter4_f_853_1317" x="9.35154" y="4.33839" width="12.2006" height="7.98435" filterUnits="userSpaceOnUse" color-interpolation-filters="sRGB">
<feFlood flood-opacity="0" result="BackgroundImageFix"/>
<feBlend mode="normal" in="SourceGraphic" in2="BackgroundImageFix" result="shape"/>
<feGaussianBlur stdDeviation="0.05" result="effect1_foregroundBlur_853_1317"/>
</filter>
<filter id="filter5_f_853_1317" x="13.8688" y="7.37094" width="12.325" height="7.95" filterUnits="userSpaceOnUse" color-interpolation-filters="sRGB">
<feFlood flood-opacity="0" result="BackgroundImageFix"/>
<feBlend mode="normal" in="SourceGraphic" in2="BackgroundImageFix" result="shape"/>
<feGaussianBlur stdDeviation="0.125" result="effect1_foregroundBlur_853_1317"/>
</filter>
<linearGradient id="paint0_linear_853_1317" x1="14.0626" y1="2.5e-06" x2="14.0626" y2="28.1961" gradientUnits="userSpaceOnUse">
<stop stop-color="#DEB586"/>
<stop offset="1" stop-color="#D7AA82"/>
</linearGradient>
<linearGradient id="paint1_linear_853_1317" x1="8.84375" y1="12.1741" x2="9.29685" y2="11.4553" gradientUnits="userSpaceOnUse">
<stop offset="0.0656074" stop-color="#C99D78"/>
<stop offset="1" stop-color="#DCB185" stop-opacity="0"/>
</linearGradient>
<linearGradient id="paint2_linear_853_1317" x1="3.59491" y1="13.2668" x2="12.0849" y2="27.4695" gradientUnits="userSpaceOnUse">
<stop stop-color="#B98875"/>
<stop offset="1" stop-color="#AA684F"/>
</linearGradient>
<linearGradient id="paint3_linear_853_1317" x1="14.8124" y1="14.846" x2="22.8124" y2="23.1585" gradientUnits="userSpaceOnUse">
<stop stop-color="#D7A585"/>
<stop offset="1" stop-color="#BD7943"/>
</linearGradient>
<linearGradient id="paint4_linear_853_1317" x1="13.6432" y1="23.3111" x2="14.8019" y2="23.2467" gradientUnits="userSpaceOnUse">
<stop stop-color="#B46C4B"/>
<stop offset="1" stop-color="#BD7E61" stop-opacity="0"/>
</linearGradient>
<linearGradient id="paint5_linear_853_1317" x1="9.5601" y1="20.8415" x2="12.1797" y2="25.8914" gradientUnits="userSpaceOnUse">
<stop stop-color="#CAB6CD"/>
<stop offset="1" stop-color="#D1BED7"/>
</linearGradient>
<linearGradient id="paint6_linear_853_1317" x1="7.03125" y1="13.9553" x2="9.03125" y2="10.9865" gradientUnits="userSpaceOnUse">
<stop offset="0.649314" stop-color="#8D6D6C"/>
<stop offset="0.725768" stop-color="#83554C"/>
<stop offset="0.825328" stop-color="#83554C"/>
<stop offset="1" stop-color="#976A58" stop-opacity="0"/>
</linearGradient>
<linearGradient id="paint7_linear_853_1317" x1="20.8749" y1="3.87719" x2="19.875" y2="5.00219" gradientUnits="userSpaceOnUse">
<stop stop-color="#9C6F5D"/>
<stop offset="1" stop-color="#9C6F5D" stop-opacity="0"/>
</linearGradient>
<clipPath id="clip0_853_1317">
<rect width="28.2" height="28.2" fill="white"/>
</clipPath>
</defs>
</svg>
