<svg width="35" height="24" viewBox="0 0 35 24" fill="none" xmlns="http://www.w3.org/2000/svg">
<path d="M33.6 3.8C33.4003 3.08412 33.0192 2.43189 32.4937 1.90635C31.9681 1.38081 31.3159 0.99975 30.6 0.8C27.9 0 17.1 0 17.1 0C17.1 0 6.40001 0 3.80001 0.7C3.07633 0.883911 2.41566 1.25967 1.88767 1.78766C1.35968 2.31565 0.983926 2.97631 0.800014 3.7C1.44243e-05 6.4 1.44023e-05 12 1.44023e-05 12C-0.0170497 14.749 0.217259 17.4937 0.700014 20.2C0.899764 20.9159 1.28083 21.5681 1.80637 22.0936C2.3319 22.6192 2.98414 23.0003 3.70001 23.2C6.40001 24 17.1 24 17.1 24C17.1 24 27.8 24 30.5 23.3C31.2159 23.1002 31.8681 22.7192 32.3937 22.1936C32.9192 21.6681 33.3003 21.0159 33.5 20.3C33.9828 17.5937 34.2171 14.849 34.2 12.1C34.2 12.1 34.3 6.4 33.6 3.8Z" fill="#FF0000"/>
<path d="M13.7 17.1L22.6 12L13.7 6.9V17.1Z" fill="white"/>
</svg>
