<?xml version="1.0" standalone="no"?>
<!DOCTYPE svg PUBLIC "-//W3C//DTD SVG 20010904//EN"
 "http://www.w3.org/TR/2001/REC-SVG-20010904/DTD/svg10.dtd">
<svg version="1.0" xmlns="http://www.w3.org/2000/svg"
 width="512.000000pt" height="512.000000pt" viewBox="0 0 512.000000 512.000000"
 preserveAspectRatio="xMidYMid meet">
<metadata>
Created by potrace 1.14, written by Peter Selinger 2001-2017
</metadata>
<g transform="translate(0.000000,512.000000) scale(0.100000,-0.100000)"
fill="#000000" stroke="none">
<path d="M1580 5109 c-1059 -64 -1432 -375 -1544 -1288 -32 -252 -38 -523 -33
-1401 3 -712 7 -892 21 -1020 53 -503 153 -782 355 -993 234 -245 589 -361
1221 -397 227 -13 1693 -13 1920 0 636 37 983 149 1221 396 227 236 334 582
369 1194 13 227 13 1693 0 1920 -37 636 -149 983 -396 1221 -237 227 -580 333
-1199 369 -200 12 -1738 11 -1935 -1z m80 -1184 c35 -18 66 -54 85 -97 64
-154 -105 -309 -255 -232 -34 17 -77 63 -89 97 -15 39 -14 101 3 140 16 40 77
95 114 103 15 3 32 7 37 9 16 5 78 -7 105 -20z m0 -480 c35 -18 67 -54 85 -97
13 -32 15 -117 15 -630 0 -555 -2 -596 -19 -633 -21 -46 -54 -79 -94 -94 -40
-15 -123 -14 -155 3 -36 19 -78 65 -91 99 -7 19 -11 229 -11 628 0 653 -1 637
58 692 57 54 143 67 212 32z m1876 19 c137 -20 207 -172 131 -285 -41 -61 -80
-79 -168 -79 -44 0 -79 -2 -79 -5 0 -3 11 -28 25 -55 90 -178 93 -433 6 -624
-42 -93 -101 -175 -174 -242 -84 -76 -156 -119 -264 -157 -114 -40 -287 -49
-408 -22 -198 44 -394 194 -489 375 -64 122 -81 197 -80 355 0 123 3 150 26
217 94 282 335 483 620 516 83 10 796 15 854 6z m-549 -1625 c186 -47 363
-187 451 -358 96 -184 95 -297 -1 -375 -79 -63 -211 -40 -261 47 -14 23 -28
56 -32 72 -22 96 -101 191 -190 232 -212 97 -445 -9 -509 -230 -38 -131 -156
-193 -263 -138 -100 52 -126 144 -79 281 125 366 502 566 884 469z"/>
<path d="M2658 3077 c-103 -39 -182 -110 -227 -206 -23 -49 -26 -69 -26 -156
0 -118 18 -164 96 -249 200 -219 560 -127 635 164 43 168 -46 354 -204 428
-46 22 -74 27 -147 29 -57 2 -103 -2 -127 -10z"/>
</g>
</svg>
